<svg xmlns="http://www.w3.org/2000/svg" width="120" height="60"><path d="M33.3 42l-3.944-12 10.32-7.415H26.914L22.97 10.58h12.763l3.948 12.004c2.286 6.96-.072 14.88-6.4 19.414zm-20.646 0l10.32 7.42L33.3 42l-10.32-7.415zm-6.38-19.42c-2.413 7.343.388 15.12 6.377 19.423V42l3.944-12-10.32-7.42 12.76.004L22.97 10.58H10.2z" fill="#eb5424"/><path d="M107.695 19.955c-2.056 0-3.795.96-5.03 2.772-1.225 1.803-1.877 4.318-1.877 7.273s.647 5.47 1.877 7.273c1.234 1.813 2.974 2.772 5.03 2.772s3.795-.96 5.03-2.772c1.225-1.803 1.877-4.318 1.877-7.273s-.647-5.47-1.877-7.273c-1.234-1.813-2.973-2.772-5.03-2.772zm0 17.593c-.982 0-1.762-.55-2.377-1.684-.743-1.367-1.152-3.45-1.152-5.874s.408-4.506 1.152-5.874c.615-1.133 1.4-1.684 2.377-1.684s1.762.55 2.377 1.684c.743 1.367 1.152 3.45 1.152 5.874s-.408 4.506-1.152 5.874c-.62 1.138-1.395 1.684-2.377 1.684zM63.12 27.27v8.636c0 2.276 1.872 4.13 4.176 4.13 2 0 3.53-.987 4.084-1.4.032-.023.073-.032.1-.018s.064.04.078.078l.335 1.092H74.4V27.27h-3.198v9.352c0 .046-.023.083-.064.106-.6.307-1.8.82-2.978.82-1.014 0-1.84-.817-1.84-1.817v-8.46zm32.025 12.5h3.198v-8.636c0-2.276-1.872-4.13-4.176-4.13-1.693 0-3.056.72-3.717 1.152a.12.12 0 0 1-.124.005.12.12 0 0 1-.064-.106v-7.847h-3.198v19.566h3.198v-9.356c0-.046.023-.083.064-.106.6-.307 1.8-.82 2.978-.82.5 0 .954.188 1.3.532s.537.798.537 1.285zm-18.442-10h1.946c.064 0 .12.055.12.12v6.883c0 1.808 1.487 3.28 3.318 3.28.665 0 1.317-.096 1.946-.28v-2.258l-1.088.05c-.54 0-.977-.436-.977-.968v-6.713c0-.064.055-.12.12-.12h1.946V27.27h-1.946c-.064 0-.12-.055-.12-.12v-4.13H78.77v4.13c0 .064-.055.12-.12.12h-1.946zM58 39.778h3.327l-5.06-17.446c-.404-1.4-1.716-2.377-3.2-2.377s-2.785.977-3.2 2.377l-5.06 17.446h3.327l1.464-5.052c.014-.05.06-.087.115-.087H56.4a.12.12 0 0 1 .115.087zm-2.372-7.622H50.53c-.037 0-.073-.018-.096-.046s-.028-.07-.018-.1l2.55-8.8c.014-.05.06-.087.115-.087a.12.12 0 0 1 .115.087l2.55 8.8c.01.037.005.073-.018.1s-.055.046-.092.046z" fill="#21264c"/></svg>